<svg width="51" height="51" viewBox="0 0 51 51" fill="none" xmlns="http://www.w3.org/2000/svg">
<g clip-path="url(#clip0_172_324)">
<path d="M32.5833 6.75C32.0877 7.63768 31.646 8.55442 31.2606 9.49524C27.4741 8.89641 23.6169 8.89641 19.8304 9.49524C19.4451 8.55442 19.0034 7.63768 18.5077 6.75C14.9409 7.35945 11.4734 8.4509 8.20056 9.99438C2.34805 18.4405 -0.306106 28.6944 0.713534 38.9193C4.52752 41.7865 8.80816 43.9732 13.3666 45.3831C14.4046 44.012 15.331 42.5598 16.1368 41.0406C14.6496 40.4923 13.2201 39.7984 11.8692 38.9692C12.2397 38.7227 12.5902 38.4473 12.9174 38.1456C16.8567 40.0431 21.173 41.0285 25.5455 41.0285C29.918 41.0285 34.2343 40.0431 38.1736 38.1456C38.523 38.4451 38.8724 38.7196 39.2218 38.9692C37.8636 39.7919 36.4355 40.4934 34.9542 41.0656C35.7266 42.6192 36.6283 44.1052 37.6495 45.5079C42.2023 44.1028 46.4755 41.9156 50.2777 39.0441C51.3218 28.8173 48.6655 18.555 42.7906 10.1192C39.5546 8.54374 36.1214 7.41053 32.5833 6.75ZM17.2599 33.0794C16.011 32.9897 14.8454 32.4197 14.0078 31.4891C13.1702 30.5584 12.7257 29.3394 12.7677 28.088C12.7194 26.835 13.1617 25.6125 14.0005 24.6805C14.8394 23.7484 16.0087 23.1802 17.2599 23.0967C18.511 23.1802 19.6803 23.7484 20.5192 24.6805C21.358 25.6125 21.8003 26.835 21.7521 28.088C21.8003 29.3411 21.358 30.5635 20.5192 31.4956C19.6803 32.4277 18.511 32.9959 17.2599 33.0794ZM33.8312 33.0794C32.5823 32.9897 31.4167 32.4197 30.5791 31.4891C29.7415 30.5584 29.297 29.3394 29.3389 28.088C29.2907 26.835 29.733 25.6125 30.5718 24.6805C31.4107 23.7484 32.58 23.1802 33.8312 23.0967C35.0847 23.174 36.2577 23.7403 37.0979 24.6738C37.938 25.6073 38.3781 26.8333 38.3234 28.088C38.3781 29.3427 37.938 30.5688 37.0979 31.5023C36.2577 32.4357 35.0847 33.0021 33.8312 33.0794Z" fill="black"/>
</g>
<defs>
<clipPath id="clip0_172_324">
<rect width="50" height="50" fill="white" transform="translate(0.5 0.5)"/>
</clipPath>
</defs>
</svg>
