<svg width="51" height="51" viewBox="0 0 51 51" fill="none" xmlns="http://www.w3.org/2000/svg">
<path d="M25.5 0.5C11.6875 0.5 0.5 11.978 0.5 26.1347C0.5 37.4632 7.6625 47.0698 17.5937 50.4557C18.8437 50.6971 19.3021 49.9046 19.3021 49.2231C19.3021 48.6143 19.2812 47.0014 19.2708 44.8652C12.3167 46.4118 10.85 41.4259 10.85 41.4259C9.7125 38.4672 8.06875 37.6768 8.06875 37.6768C5.80417 36.0874 8.24375 36.1195 8.24375 36.1195C10.7542 36.2989 12.0729 38.7599 12.0729 38.7599C14.3021 42.6798 17.925 41.5476 19.3542 40.8918C19.5792 39.2341 20.2229 38.104 20.9375 37.4632C15.3854 36.8223 9.55 34.6177 9.55 24.7953C9.55 21.9969 10.5187 19.7111 12.1229 17.9167C11.8417 17.2694 10.9979 14.6632 12.3417 11.132C12.3417 11.132 14.4354 10.4441 19.2167 13.7596C21.2167 13.1892 23.3417 12.9072 25.4667 12.8944C27.5917 12.9072 29.7167 13.1892 31.7167 13.7596C36.4667 10.4441 38.5604 11.132 38.5604 11.132C39.9042 14.6632 39.0604 17.2694 38.8104 17.9167C40.4042 19.7111 41.3729 21.9969 41.3729 24.7953C41.3729 34.6433 35.5292 36.8116 29.9667 37.4418C30.8417 38.2108 31.6542 39.7831 31.6542 42.1842C31.6542 45.615 31.6229 48.3708 31.6229 49.2039C31.6229 49.8768 32.0604 50.6779 33.3417 50.4215C43.3437 47.0591 50.5 37.4461 50.5 26.1347C50.5 11.978 39.3062 0.5 25.5 0.5" fill="black"/>
</svg>
