<svg width="51" height="51" viewBox="0 0 51 51" fill="none" xmlns="http://www.w3.org/2000/svg">
<path d="M50.5 26.0622C50.5 24.4164 50.351 22.8539 50.0955 21.333H26.0427V30.7289H39.8146C39.1973 33.8123 37.388 36.4164 34.706 38.1873V44.4373H42.9223C47.7328 40.0831 50.5 33.6664 50.5 26.0622Z" fill="black"/>
<path d="M26.0428 50.5001C32.9394 50.5001 38.7078 48.25 42.9223 44.4375L34.7061 38.1875C32.4072 39.6875 29.4911 40.6042 26.0428 40.6042C19.3804 40.6042 13.7397 36.2083 11.7175 30.2708H3.24585V36.7083C7.43913 44.875 16.0598 50.5001 26.0428 50.5001Z" fill="black"/>
<path d="M11.7175 30.2708C11.1854 28.7708 10.9087 27.1666 10.9087 25.4999C10.9087 23.8332 11.2067 22.2291 11.7175 20.729V14.2915H3.24585C1.50043 17.6665 0.5 21.4582 0.5 25.4999C0.5 29.5416 1.50043 33.3333 3.24585 36.7083L11.7175 30.2708Z" fill="black"/>
<path d="M26.0428 10.3959C29.8104 10.3959 33.1735 11.6667 35.8342 14.1459L43.1139 7.02088C38.7078 2.97918 32.9394 0.5 26.0428 0.5C16.0598 0.5 7.43913 6.12504 3.24585 14.2918L11.7175 20.7293C13.7397 14.7918 19.3804 10.3959 26.0428 10.3959Z" fill="black"/>
</svg>
