<svg width="325" height="75" viewBox="0 0 325 75" fill="none" xmlns="http://www.w3.org/2000/svg">
<g filter="url(#filter0_d_266_31)">
<rect x="15" y="11" width="85" height="45" rx="22.5" fill="#3C3C3C"/>
<rect x="120" y="11" width="85" height="45" rx="22.5" fill="#3C3C3C"/>
<rect x="225" y="11" width="85" height="45" rx="22.5" fill="#3C3C3C"/>
<path d="M40.413 41L42.5607 27.9091H44.3505L42.2028 41H40.413ZM34.5131 37.625L34.8136 35.8352H44.8874L44.587 37.625H34.5131ZM35.8107 41L37.9584 27.9091H39.7482L37.6005 41H35.8107ZM35.2738 33.0739L35.5678 31.2841H45.6417L45.3477 33.0739H35.2738ZM48.6454 33.098H60.4534V35.006H48.6454V33.098ZM46.9714 38.804H62.0554V40.73H46.9714V38.804ZM53.3074 34.232H55.7014V39.344H53.3074V34.232ZM48.6454 27.194H51.0574V33.926H48.6454V27.194ZM64.502 33.872H65.78C68.876 33.872 70.496 33.818 72.386 33.476L72.62 35.366C70.676 35.726 68.966 35.78 65.78 35.78H64.502V33.872ZM64.484 26.888H71.81V32.144H66.878V35.132H64.502V30.362H69.434V28.778H64.484V26.888ZM75.428 25.952H77.822V36.212H75.428V25.952ZM72.764 28.238H75.86V30.146H72.764V28.238ZM72.764 31.784H75.86V33.692H72.764V31.784ZM66.41 36.968H77.822V42.62H75.428V38.876H66.41V36.968Z" fill="white"/>
<path d="M145.413 41L147.561 27.9091H149.35L147.203 41H145.413ZM139.513 37.625L139.814 35.8352H149.887L149.587 37.625H139.513ZM140.811 41L142.958 27.9091H144.748L142.6 41H140.811ZM140.274 33.0739L140.568 31.2841H150.642L150.348 33.0739H140.274ZM152.511 36.824H153.681C156.111 36.824 157.659 36.788 159.531 36.5L159.729 38.444C157.821 38.768 156.165 38.804 153.681 38.804H152.511V36.824ZM152.511 27.662H159.243V29.57H154.779V37.616H152.511V27.662ZM154.131 32.018H158.919V33.872H154.131V32.018ZM163.995 25.934H166.281V42.602H163.995V25.934ZM161.997 32.378H164.751V34.304H161.997V32.378ZM160.395 26.186H162.645V41.846H160.395V26.186ZM170.636 33.368H182.354V35.276H170.636V33.368ZM168.89 38.768H183.974V40.73H168.89V38.768ZM175.208 34.232H177.602V39.398H175.208V34.232ZM170.636 27.068H182.228V28.994H173.03V34.196H170.636V27.068Z" fill="white"/>
<path d="M250.413 41L252.561 27.9091H254.35L252.203 41H250.413ZM244.513 37.625L244.814 35.8352H254.887L254.587 37.625H244.513ZM245.811 41L247.958 27.9091H249.748L247.6 41H245.811ZM245.274 33.0739L245.568 31.2841H255.642L255.348 33.0739H245.274ZM258.807 26.708H269.373V28.616H258.807V26.708ZM256.953 32.774H272.037V34.664H256.953V32.774ZM267.933 26.708H270.291V28.04C270.291 29.498 270.291 31.172 269.769 33.368L267.411 33.134C267.933 30.992 267.933 29.462 267.933 28.04V26.708ZM264.495 36.068C268.095 36.068 270.345 37.274 270.345 39.344C270.345 41.414 268.095 42.602 264.495 42.602C260.877 42.602 258.627 41.414 258.627 39.344C258.627 37.274 260.877 36.068 264.495 36.068ZM264.495 37.994C262.245 37.994 261.039 38.408 261.039 39.344C261.039 40.262 262.245 40.694 264.495 40.694C266.745 40.694 267.933 40.262 267.933 39.344C267.933 38.408 266.745 37.994 264.495 37.994ZM282.908 29.966H286.076V31.91H282.908V29.966ZM285.428 25.934H287.822V35.834H285.428V25.934ZM282.17 36.194C285.698 36.194 287.876 37.4 287.876 39.416C287.876 41.45 285.698 42.62 282.17 42.62C278.642 42.62 276.464 41.45 276.464 39.416C276.464 37.4 278.642 36.194 282.17 36.194ZM282.17 38.012C280.01 38.012 278.858 38.462 278.858 39.416C278.858 40.352 280.01 40.802 282.17 40.802C284.348 40.802 285.5 40.352 285.5 39.416C285.5 38.462 284.348 38.012 282.17 38.012ZM277.724 27.608H279.668V28.652C279.668 31.838 278.192 34.754 275.006 35.834L273.782 33.944C276.536 33.008 277.724 30.794 277.724 28.652V27.608ZM278.228 27.608H280.154V28.652C280.154 30.614 281.288 32.648 283.916 33.53L282.746 35.42C279.65 34.394 278.228 31.622 278.228 28.652V27.608ZM274.43 26.942H283.394V28.85H274.43V26.942Z" fill="white"/>
</g>
<defs>
<filter id="filter0_d_266_31" x="0" y="0" width="325" height="75" filterUnits="userSpaceOnUse" color-interpolation-filters="sRGB">
<feFlood flood-opacity="0" result="BackgroundImageFix"/>
<feColorMatrix in="SourceAlpha" type="matrix" values="0 0 0 0 0 0 0 0 0 0 0 0 0 0 0 0 0 0 127 0" result="hardAlpha"/>
<feOffset dy="4"/>
<feGaussianBlur stdDeviation="7.5"/>
<feComposite in2="hardAlpha" operator="out"/>
<feColorMatrix type="matrix" values="0 0 0 0 0 0 0 0 0 0 0 0 0 0 0 0 0 0 0.5 0"/>
<feBlend mode="normal" in2="BackgroundImageFix" result="effect1_dropShadow_266_31"/>
<feBlend mode="normal" in="SourceGraphic" in2="effect1_dropShadow_266_31" result="shape"/>
</filter>
</defs>
</svg>
