<svg width="51" height="51" viewBox="0 0 51 51" fill="none" xmlns="http://www.w3.org/2000/svg">
<path d="M25.5056 12.6835C18.4113 12.6835 12.6891 18.4058 12.6891 25.5C12.6891 32.5943 18.4113 38.3165 25.5056 38.3165C32.5998 38.3165 38.3221 32.5943 38.3221 25.5C38.3221 18.4058 32.5998 12.6835 25.5056 12.6835ZM25.5056 33.8324C20.9211 33.8324 17.1732 30.0957 17.1732 25.5C17.1732 20.9044 20.9099 17.1676 25.5056 17.1676C30.1012 17.1676 33.838 20.9044 33.838 25.5C33.838 30.0957 30.0901 33.8324 25.5056 33.8324ZM41.8358 12.1593C41.8358 13.8213 40.4972 15.1487 38.8463 15.1487C37.1843 15.1487 35.8569 13.8101 35.8569 12.1593C35.8569 10.5084 37.1955 9.16986 38.8463 9.16986C40.4972 9.16986 41.8358 10.5084 41.8358 12.1593ZM50.3243 15.1933C50.1347 11.1888 49.22 7.6417 46.2864 4.71922C43.3639 1.79675 39.8168 0.882079 35.8123 0.681298C31.6852 0.447054 19.3148 0.447054 15.1877 0.681298C11.1944 0.870925 7.64724 1.78559 4.71361 4.70807C1.77998 7.63055 0.876464 11.1777 0.675683 15.1821C0.441439 19.3093 0.441439 31.6796 0.675683 35.8068C0.86531 39.8112 1.77998 43.3584 4.71361 46.2809C7.64724 49.2033 11.1832 50.118 15.1877 50.3188C19.3148 50.553 31.6852 50.553 35.8123 50.3188C39.8168 50.1291 43.3639 49.2145 46.2864 46.2809C49.2089 43.3584 50.1235 39.8112 50.3243 35.8068C50.5586 31.6796 50.5586 19.3205 50.3243 15.1933ZM44.9925 40.2351C44.1224 42.4214 42.4381 44.1057 40.2407 44.9869C36.9501 46.292 29.1419 45.9908 25.5056 45.9908C21.8692 45.9908 14.0499 46.2809 10.7705 44.9869C8.58422 44.1169 6.89989 42.4326 6.01868 40.2351C4.71361 36.9445 5.01478 29.1364 5.01478 25.5C5.01478 21.8637 4.72476 14.0444 6.01868 10.765C6.88873 8.57868 8.57306 6.89435 10.7705 6.01314C14.0611 4.70807 21.8692 5.00924 25.5056 5.00924C29.1419 5.00924 36.9612 4.71922 40.2407 6.01314C42.4269 6.88319 44.1113 8.56752 44.9925 10.765C46.2975 14.0555 45.9964 21.8637 45.9964 25.5C45.9964 29.1364 46.2975 36.9557 44.9925 40.2351Z" fill="black"/>
</svg>
