<svg width="15" height="14" viewBox="0 0 15 14" fill="none" xmlns="http://www.w3.org/2000/svg">
<path d="M14.8042 4.62105L11.0541 8.16232C10.6589 8.53563 10 8.25886 10 7.70795V5.83391C6.23503 5.85917 4.64672 6.74831 5.70898 10.2962C5.82573 10.6862 5.37445 10.9881 5.05779 10.7475C4.04302 9.9767 3.125 8.5023 3.125 7.01404C3.125 3.26568 6.18747 2.52185 10 2.50071V0.625318C10 0.0739121 10.6593 -0.201973 11.0541 0.170943L14.8042 3.7123C15.0652 3.95873 15.0654 4.37441 14.8042 4.62105ZM10 9.87313V11.6667H1.66667V3.33334H2.9926C3.03469 3.33331 3.07633 3.32478 3.11503 3.30825C3.15373 3.29173 3.18869 3.26755 3.21781 3.23717C3.60721 2.83175 4.05732 2.51087 4.5463 2.25602C4.83615 2.10495 4.72875 1.66667 4.4019 1.66667H1.25C0.559635 1.66667 0 2.22631 0 2.91667V12.0833C0 12.7737 0.559635 13.3333 1.25 13.3333H10.4167C11.107 13.3333 11.6667 12.7737 11.6667 12.0833V9.77068C11.6667 9.55485 11.4532 9.40438 11.2497 9.47636C10.9644 9.57726 10.6589 9.60744 10.3594 9.5643C10.1701 9.53706 10 9.68185 10 9.87313Z" fill="#999999"/>
</svg>
