<svg width="128" height="140" viewBox="0 0 128 140" fill="none" xmlns="http://www.w3.org/2000/svg">
<g filter="url(#filter0_di_356_61)">
<path d="M60 16L103.301 41V91L60 116L16.6987 91V41L60 16Z" fill="white"/>
</g>
<path d="M62.1984 40.3101C60.8675 39.5616 59.1325 39.565 57.8005 40.3101C51.1291 43.9917 44.4578 47.6745 37.7853 51.3545C36.4869 52.0375 35.6112 53.4318 35.6252 54.8791V77.124C35.6158 78.5994 36.5367 80.0072 37.8685 80.6809C39.7851 81.7005 41.6471 82.8237 43.5983 83.7754C45.8522 84.8829 48.672 85.1279 50.9535 83.9729C52.8054 83.0155 53.6279 80.8866 53.6256 78.93C53.6405 71.5886 53.6279 64.247 53.6314 56.9056C53.6754 56.5793 53.4305 56.2306 53.0746 56.2384C52.222 56.225 51.3683 56.2306 50.5157 56.2362C50.1935 56.2057 49.8792 56.4733 49.9035 56.7971C49.892 64.0912 49.9058 71.3876 49.8966 78.6828C49.9151 79.692 49.2334 80.6618 48.2609 81.0027C46.0147 81.7899 39.6037 77.6273 39.6037 77.6273C39.3684 77.5183 39.219 77.2632 39.2421 77.0097C39.2421 69.6705 39.2432 62.3312 39.2421 54.9931C39.2098 54.6973 39.3921 54.4309 39.6638 54.3101C46.3131 50.6501 52.959 46.981 59.6084 43.3188C59.8392 43.1647 60.1613 43.1651 60.3917 43.3199C67.041 46.981 73.6881 50.6468 80.3385 54.3069C80.6112 54.4275 80.7857 54.6984 80.7579 54.9931C80.7568 62.3312 80.7602 69.6705 80.7556 77.0086C80.7753 77.2683 80.6412 77.52 80.3986 77.634C73.8113 81.2741 67.1491 84.7968 60.6215 88.5427C60.3367 88.7061 60.0141 88.8912 59.695 88.7112C57.9784 87.7617 56.2826 86.7752 54.5717 85.8165C54.3858 85.7004 54.1489 85.6506 53.9549 85.7804C53.1877 86.1847 52.4663 86.5121 51.5854 86.8608C50.3482 87.3505 50.5459 87.5509 51.6616 88.2009C53.6625 89.3332 55.6667 90.4611 57.6675 91.5946C58.9846 92.4165 60.7544 92.4751 62.114 91.7154C68.7865 88.0384 75.4567 84.3569 82.1303 80.68C83.4588 80.0025 84.3842 78.6004 84.3749 77.1238V54.8791C84.3877 53.4612 83.5454 52.0917 82.2863 51.3986C75.5918 47.699 68.894 44.0075 62.1984 40.3101Z" fill="#8CC84B"/>
<path d="M72.266 57.0117C69.6472 55.6107 66.5317 55.5361 63.6216 55.7191C61.5192 55.9269 59.308 56.507 57.7762 58.0141C56.2052 59.5292 55.8632 61.9756 56.6094 63.9535C57.1442 65.351 58.4902 66.2599 59.8822 66.7406C61.6753 67.3736 63.5585 67.5693 65.4424 67.7651C67.1607 67.9437 68.8795 68.1223 70.531 68.6328C71.2056 68.8565 71.9912 69.1985 72.1979 69.9323C72.3886 70.8016 72.1795 71.812 71.4737 72.416C69.2318 74.1904 62.996 73.9185 60.7811 72.522C59.8856 71.927 59.4997 70.8738 59.3428 69.8703C59.3254 69.5575 59.0736 69.2706 58.734 69.2944C57.8837 69.2843 57.0334 69.2865 56.1831 69.2933C55.8864 69.2684 55.578 69.4795 55.5617 69.7822C55.387 74.3791 59.6088 76.3831 63.5697 76.8244C65.8328 77.04 68.1454 77.0276 70.3739 76.5421C72.049 76.1606 73.7285 75.4583 74.8817 74.168C76.3037 72.6 76.5832 70.2654 75.9455 68.3122C75.458 66.8549 74.0647 65.92 72.6404 65.439C70.7036 64.7749 68.4082 64.418 66.654 64.2509C64.1041 64.008 61.0741 64.1072 60.3525 62.4317C60.0647 61.5544 60.3096 60.465 61.1159 59.9254C63.2491 58.4784 67.5905 58.6706 69.7997 59.7515C70.8141 60.2595 71.4019 61.3027 71.6445 62.3559C71.6895 62.6654 71.8977 62.9881 72.2558 62.9747C73.1002 62.9915 73.9447 62.9792 74.7891 62.9803C75.0791 63.0007 75.3967 62.8369 75.4534 62.5399C75.4176 60.3386 74.2935 58.0853 72.266 57.0117Z" fill="#8CC84B"/>
<defs>
<filter id="filter0_di_356_61" x="0.69873" y="0" width="126.603" height="140" filterUnits="userSpaceOnUse" color-interpolation-filters="sRGB">
<feFlood flood-opacity="0" result="BackgroundImageFix"/>
<feColorMatrix in="SourceAlpha" type="matrix" values="0 0 0 0 0 0 0 0 0 0 0 0 0 0 0 0 0 0 127 0" result="hardAlpha"/>
<feOffset dx="4" dy="4"/>
<feGaussianBlur stdDeviation="10"/>
<feComposite in2="hardAlpha" operator="out"/>
<feColorMatrix type="matrix" values="0 0 0 0 1 0 0 0 0 1 0 0 0 0 1 0 0 0 0.5 0"/>
<feBlend mode="normal" in2="BackgroundImageFix" result="effect1_dropShadow_356_61"/>
<feBlend mode="normal" in="SourceGraphic" in2="effect1_dropShadow_356_61" result="shape"/>
<feColorMatrix in="SourceAlpha" type="matrix" values="0 0 0 0 0 0 0 0 0 0 0 0 0 0 0 0 0 0 127 0" result="hardAlpha"/>
<feOffset dy="4"/>
<feGaussianBlur stdDeviation="10"/>
<feComposite in2="hardAlpha" operator="arithmetic" k2="-1" k3="1"/>
<feColorMatrix type="matrix" values="0 0 0 0 0 0 0 0 0 0 0 0 0 0 0 0 0 0 0.5 0"/>
<feBlend mode="normal" in2="shape" result="effect2_innerShadow_356_61"/>
</filter>
</defs>
</svg>
